# xmcd
#
# Track frame offsets:
#	150
#	15383
#	25631
#	38350
#	50577
#	68149
#	84085
#	94483
#	103537
#	117982
#	134244
#	147223
#	159849
#	173506
#
# Disc length: 2487 seconds
#
# Revision: 2
# Processed by: cddbd v1.5.2PL0 Copyright (c) Steve Scherf et al.
# Submitted via: audiograbber 1.83.01
#
DISCID=a709b50e
DTITLE=Mary Schneider - The Great Mary Schneider [Disc 1]
DYEAR=2005
DGENRE=Country
TTITLE0=Mule Skinner Blues
TTITLE1=Swiss Maid
TTITLE2=Cattle Call
TTITLE3=I Remember You
TTITLE4=Mocking Bird Yodel
TTITLE5=Train Medley: Wabash Cannonball/Freight Train/Wreck Of The Old 97/Blue 
TTITLE5=River Train/Orange Blossom Special/Freight Train Yodel
TTITLE6=Radetzky March Yodel
TTITLE7=Cuckoo Yodel
TTITLE8=Captain Cook
TTITLE9=Love's Old Sweet Song
TTITLE10=Harmonise A Yodel With Me (with daughter Melinda Schneider)
TTITLE11=Chime Bells
TTITLE12=Lovesick Blues
TTITLE13=Yodelling Mozart (Medley): Eine Kleine Nacht Musik/Symphony No. 40 in 
TTITLE13=G Minor/Rondo Alla Turca
EXTD=YEAR: 2005
EXTT0=
EXTT1=
EXTT2=
EXTT3=
EXTT4=
EXTT5=
EXTT6=
EXTT7=
EXTT8=
EXTT9=
EXTT10=
EXTT11=
EXTT12=
EXTT13=
PLAYORDER=
